<svg xmlns="http://www.w3.org/2000/svg" width="1024" height="512" viewBox="0 0 1024 512">
  <defs>
    <style>
      .main { fill: rgb(30,94,255); }
      .word { fill: rgb(30,94,255); font-family: DejaVu Sans, Arial, sans-serif; font-weight: 700; font-size: 140px; }
      .sub  { fill: rgb(160,195,255); font-family: DejaVu Sans, Arial, sans-serif; font-weight: 400; font-size: 44px; }
    </style>
  </defs>

  <rect width="1024" height="512" fill="none"/>

  <!-- Badge -->
  <circle cx="220" cy="256" r="150" fill="none" stroke="rgb(30,94,255)" stroke-width="14"/>
  <rect x="125" y="201" width="190" height="110" rx="24" ry="24" fill="none" stroke="rgb(30,94,255)" stroke-width="8"/>
  <circle cx="153" cy="256" r="10" class="main"/>
  <circle cx="287" cy="256" r="10" class="main"/>
  <polyline points="135.0,256.0 135.7,257.0 136.3,257.9 137.0,258.9 137.6,259.8 138.3,260.7 138.9,261.7 139.6,262.6 140.3,263.5 140.9,264.3 141.6,265.2 142.2,266.0 142.9,266.8 143.5,267.5 144.2,268.2 144.8,268.9 145.5,269.6 146.2,270.2 146.8,270.8 147.5,271.3 148.1,271.8 148.8,272.2 149.4,272.6 150.1,272.9 150.8,273.2 151.4,273.5 152.1,273.7 152.7,273.8 153.4,273.9 154.0,274.0 154.7,274.0 155.3,273.9 156.0,273.8 156.7,273.7 157.3,273.5 158.0,273.2 158.6,272.9 159.3,272.6 159.9,272.2 160.6,271.7 161.3,271.2 161.9,270.7 162.6,270.1 163.2,269.5 163.9,268.8 164.5,268.1 165.2,267.4 165.8,266.7 166.5,265.9 167.2,265.0 167.8,264.2 168.5,263.3 169.1,262.4 169.8,261.5 170.4,260.6 171.1,259.7 171.8,258.7 172.4,257.8 173.1,256.8 173.7,255.9 174.4,254.9 175.0,254.0 175.7,253.0 176.4,252.1 177.0,251.1 177.7,250.2 178.3,249.3 179.0,248.4 179.6,247.6 180.3,246.7 180.9,245.9 181.6,245.1 182.3,244.4 182.9,243.7 183.6,243.0 184.2,242.3 184.9,241.7 185.5,241.2 186.2,240.6 186.9,240.2 187.5,239.7 188.2,239.3 188.8,239.0 189.5,238.7 190.1,238.5 190.8,238.3 191.4,238.1 192.1,238.0 192.8,238.0 193.4,238.0 194.1,238.1 194.7,238.2 195.4,238.4 196.0,238.6 196.7,238.8 197.4,239.1 198.0,239.5 198.7,239.9 199.3,240.4 200.0,240.9 200.6,241.4 201.3,242.0 201.9,242.6 202.6,243.3 203.3,244.0 203.9,244.7 204.6,245.5 205.2,246.2 205.9,247.1 206.5,247.9 207.2,248.8 207.9,249.7 208.5,250.6 209.2,251.5 209.8,252.4 210.5,253.4 211.1,254.3 211.8,255.3 212.5,256.3 213.1,257.2 213.8,258.2 214.4,259.1 215.1,260.1 215.7,261.0 216.4,261.9 217.0,262.8 217.7,263.7 218.4,264.5 219.0,265.4 219.7,266.2 220.3,267.0 221.0,267.7 221.6,268.4 222.3,269.1 223.0,269.7 223.6,270.3 224.3,270.9 224.9,271.4 225.6,271.9 226.2,272.3 226.9,272.7 227.5,273.0 228.2,273.3 228.9,273.6 229.5,273.7 230.2,273.9 230.8,274.0 231.5,274.0 232.1,274.0 232.8,273.9 233.5,273.8 234.1,273.6 234.8,273.4 235.4,273.1 236.1,272.8 236.7,272.4 237.4,272.0 238.1,271.6 238.7,271.1 239.4,270.5 240.0,269.9 240.7,269.3 241.3,268.6 242.0,267.9 242.6,267.2 243.3,266.4 244.0,265.6 244.6,264.8 245.3,264.0 245.9,263.1 246.6,262.2 247.2,261.3 247.9,260.4 248.6,259.4 249.2,258.5 249.9,257.5 250.5,256.6 251.2,255.6 251.8,254.6 252.5,253.7 253.1,252.7 253.8,251.8 254.5,250.9 255.1,250.0 255.8,249.1 256.4,248.2 257.1,247.3 257.7,246.5 258.4,245.7 259.1,244.9 259.7,244.2 260.4,243.5 261.0,242.8 261.7,242.2 262.3,241.6 263.0,241.0 263.6,240.5 264.3,240.0 265.0,239.6 265.6,239.2 266.3,238.9 266.9,238.6 267.6,238.4 268.2,238.2 268.9,238.1 269.6,238.0 270.2,238.0 270.9,238.0 271.5,238.1 272.2,238.2 272.8,238.4 273.5,238.6 274.2,238.9 274.8,239.2 275.5,239.6 276.1,240.0 276.8,240.5 277.4,241.0 278.1,241.6 278.7,242.1 279.4,242.8 280.1,243.5 280.7,244.2 281.4,244.9 282.0,245.7 282.7,246.5 283.3,247.3 284.0,248.2 284.7,249.0 285.3,249.9 286.0,250.8 286.6,251.8 287.3,252.7 287.9,253.6 288.6,254.6 289.2,255.6 289.9,256.5 290.6,257.5 291.2,258.4 291.9,259.4 292.5,260.3 293.2,261.2 293.8,262.2 294.5,263.1 295.2,263.9 295.8,264.8 296.5,265.6 297.1,266.4 297.8,267.2 298.4,267.9 299.1,268.6 299.7,269.3 300.4,269.9 301.1,270.5 301.7,271.0 302.4,271.6 303.0,272.0 303.7,272.4 304.3,272.8 305.0,273.1" fill="none" stroke="rgb(30,94,255)" stroke-width="10" stroke-linecap="round" stroke-linejoin="round"/>

  <!-- Text -->
  <text x="420" y="265" class="word">ANDI</text>

  <!-- Subtitle highlight -->
  <rect x="402" y="305" width="679" height="62" rx="18" ry="18"
        fill="rgb(30,94,255)" opacity="0.16"/>

  <text x="420" y="355" class="sub">for Digilent Analog Discovery</text>
</svg>
